Coordinates
version=1
nRows=11
nColumns=40
inDegrees=yes

Units are S.I. units (second, meters, Newtons, ...)
Angles are in degrees.

endheader
time	pelvis_tilt	pelvis_list	pelvis_rotation	pelvis_tx	pelvis_ty	pelvis_tz	hip_flexion_r	hip_adduction_r	hip_rotation_r	knee_angle_r	knee_angle_r_beta	ankle_angle_r	subtalar_angle_r	mtp_angle_r	hip_flexion_l	hip_adduction_l	hip_rotation_l	knee_angle_l	knee_angle_l_beta	ankle_angle_l	subtalar_angle_l	mtp_angle_l	lumbar_extension	lumbar_bending	lumbar_rotation	arm_flex_r	arm_add_r	arm_rot_r	elbow_flex_r	pro_sup_r	wrist_flex_r	wrist_dev_r	arm_flex_l	arm_add_l	arm_rot_l	elbow_flex_l	pro_sup_l	wrist_flex_l	wrist_dev_l
     51.50000000	     -6.38346675	     -5.72911825	      6.94929942	      0.91011838	      0.91707914	      0.46923265	     -1.29285042	      2.57952787	    -18.58442712	     15.18339674	     15.18339674	     17.08592186	     -1.66743663	     -2.25887488	     30.08894749	     -6.14845282	      1.98348171	     26.39576232	     26.39576232	      5.81481645	    -13.09350624	      3.71791636	     -8.71328024	      1.95297394	      3.75963572	     55.19091556	    -18.19606749	     -8.05622168	     65.43142674	     45.12769999	      0.00000000	      0.00000000	     -9.47413857	     -9.45952766	      9.74675483	     28.23941573	     44.68495689	      0.00000000	      0.00000000
     51.51971429	     -6.48304373	     -5.58837594	      6.59787836	      0.91166445	      0.91807734	      0.46460634	     -1.21156523	      1.84303894	    -18.59803033	     16.15983955	     16.15983955	     16.68620430	     -1.38883832	     -2.79126998	     29.53280107	     -5.88249702	      1.58522007	     26.41783412	     26.41783412	      6.48318106	    -13.10999002	      3.83217633	     -8.59532708	      1.85906539	      4.42324292	     54.79028363	    -18.79185754	     -8.56518532	     63.29729635	     45.22432969	      0.00000000	      0.00000000	     -8.49215113	     -9.96487073	      9.39599911	     29.08217074	     44.76712471	      0.00000000	      0.00000000
     51.53942857	     -6.51377934	     -5.72015561	      6.34419000	      0.91318890	      0.91922472	      0.45998478	     -1.36485998	      1.53348717	    -18.51239608	     16.68572667	     16.68572667	     16.14977116	     -1.27990196	     -2.84709436	     28.97081725	     -5.83571388	      1.45809452	     26.43394508	     26.43394508	      7.00975941	    -13.25794168	      3.73486051	     -8.58232038	      2.23924039	      4.32928442	     54.05559062	    -18.44036532	     -8.53786782	     62.65548583	     45.24251949	      0.00000000	      0.00000000	     -7.61539104	    -10.41467481	      9.27448442	     29.44517732	     44.80106824	      0.00000000	      0.00000000
     51.55914286	     -6.59869170	     -5.49305426	      5.96501988	      0.91441013	      0.92021627	      0.45527281	     -1.13884552	      0.60820265	    -18.62109158	     17.84295885	     17.84295885	     14.98158492	     -1.16803827	     -5.77453445	     28.33809819	     -5.48342465	      0.94283656	     26.35877034	     26.35877034	      7.89824212	    -13.10346707	      4.62401075	     -8.38078883	      2.13392190	      3.75886374	     55.20016673	    -17.05351962	    -10.25758724	     56.21624049	     45.55092920	      0.00000000	      0.00000000	     -7.62446477	    -11.00772759	      8.46213682	     31.34522061	     44.97765711	      0.00000000	      0.00000000
     51.57885714	     -6.66126773	     -5.42426253	      5.60330983	      0.91552721	      0.92132400	      0.45068180	     -0.81466793	     -0.08819696	    -18.36763722	     19.16570383	     19.16570383	     14.37456730	     -1.45194948	     -6.47382675	     27.64901985	     -5.28362782	      0.50979161	     26.11685340	     26.11685340	      8.34337287	    -13.05876341	      4.57462051	     -8.33917520	      2.29292502	      3.96504060	     54.27449451	    -17.21774461	    -10.48545223	     54.76777876	     45.60871715	      0.00000000	      0.00000000	     -6.64163166	    -11.43976073	      8.11964663	     32.08915517	     45.05474690	      0.00000000	      0.00000000
     51.59857143	     -6.66598499	     -5.32581384	      5.21813512	      0.91663225	      0.92247388	      0.44609944	     -0.46816054	     -0.84191398	    -18.07678358	     20.61541942	     20.61541942	     13.64481708	     -1.76701043	     -7.40916589	     26.85948304	     -5.05154425	      0.07248753	     25.81746466	     25.81746466	      8.76565907	    -13.07808749	      4.56134810	     -8.33336414	      2.40815235	      4.08817249	     53.32888396	    -17.30267083	    -10.82892315	     52.87157684	     45.68706979	      0.00000000	      0.00000000	     -5.66608101	    -11.86025795	      7.84647489	     32.81597655	     45.11925635	      0.00000000	      0.00000000
     51.61828571	     -6.58708618	     -5.28615990	      4.87848839	      0.91771989	      0.92359065	      0.44149210	     -0.28406149	     -1.46292172	    -17.69459891	     21.74343954	     21.74343954	     11.64019199	     -2.86205090	    -11.49373290	     26.06309291	     -4.84088836	     -0.21312918	     25.63775384	     25.63775384	      9.23053297	    -13.19737568	      4.71595811	     -8.31302357	      2.64437780	      3.39309524	     53.56727197	    -16.11643602	    -12.30850610	     47.76772052	     45.93087633	      0.00000000	      0.00000000	     -5.29630315	    -12.32481746	      7.30761773	     33.95774986	     45.26686577	      0.00000000	      0.00000000
     51.63800000	     -6.48118184	     -5.17630723	      4.48535348	      0.91878185	      0.92472083	      0.43689908	      0.19166751	     -2.27721497	    -17.28654248	     23.60759121	     23.60759121	     10.89347694	     -3.39434200	    -12.06370241	     25.17389590	     -4.58050899	     -0.63208063	     25.35863476	     25.35863476	      9.62111720	    -13.25625906	      4.69804033	     -8.40734257	      2.82555759	      3.43067215	     52.00119848	    -16.26696257	    -12.47443070	     46.50786464	     45.97511068	      0.00000000	      0.00000000	     -4.20283531	    -12.67934241	      7.11319101	     34.47943391	     45.31611257	      0.00000000	      0.00000000
     51.65771429	     -6.36791312	     -5.10908552	      4.07959851	      0.91980915	      0.92565357	      0.43239533	      0.79601176	     -3.04804164	    -16.78211212	     25.66083957	     25.66083957	      9.94624330	     -4.21883264	    -12.86469449	     24.35095548	     -4.34488503	     -0.95330490	     25.19125213	     25.19125213	     10.03082398	    -13.45533209	      4.72057526	     -8.44952621	      3.06133828	      3.46315144	     50.34459984	    -16.43337343	    -12.72041291	     44.83172411	     46.03859045	      0.00000000	      0.00000000	     -3.04214093	    -12.97353278	      6.97805345	     34.95298184	     45.35819105	      0.00000000	      0.00000000
     51.67742857	     -6.24067945	     -5.13654675	      3.67150634	      0.92070720	      0.92639304	      0.42799776	      1.38509017	     -3.59558223	    -15.98179815	     27.45023071	     27.45023071	      7.45302776	     -6.51383643	    -17.16582105	     23.64376436	     -4.18113088	     -1.12491492	     25.23259309	     25.23259309	     10.67590240	    -13.73355428	      5.32196515	     -8.41881457	      3.44872021	      3.18545456	     49.79977189	    -15.85879170	    -14.43570163	     39.88806322	     46.28841773	      0.00000000	      0.00000000	     -1.81049981	    -13.22397912	      7.29025809	     34.76942828	     45.39936112	      0.00000000	      0.00000000
     51.69714286	     -5.94615991	     -5.04711972	      3.26560759	      0.92169542	      0.92701266	      0.42363581	      2.11926215	     -4.42184565	    -15.46140131	     30.06551954	     30.06551954	      6.44809694	     -7.49472175	    -17.48721020	     22.77886208	     -3.92803660	     -1.41724405	     25.33160180	     25.33160180	     11.16355020	    -13.98651682	      5.24886817	     -8.66457984	      3.70195401	      2.94103576	     47.71311889	    -15.78515690	    -14.58362240	     38.70598876	     46.32635488	      0.00000000	      0.00000000	     -0.66642571	    -13.50034885	      7.18416656	     35.19357009	     45.43492299	      0.00000000	      0.00000000
